<mxfile host="Electron" agent="Mozilla/5.0 (Windows NT 10.0; Win64; x64) AppleWebKit/537.36 (KHTML, like Gecko) draw.io/27.0.5 Chrome/134.0.6998.205 Electron/35.3.0 Safari/537.36" version="27.0.5">
  <diagram name="Pagina-1" id="COeQRHTQGuJaWE0zaVjj">
    <mxGraphModel dx="4060" dy="1001" grid="1" gridSize="10" guides="1" tooltips="1" connect="1" arrows="1" fold="1" page="1" pageScale="1" pageWidth="1169" pageHeight="1654" math="0" shadow="0">
      <root>
        <mxCell id="0" />
        <mxCell id="1" parent="0" />
        <mxCell id="VPmdxkoRCYv9EaFTGyUe-1" value="&lt;font style=&quot;font-size: 18px;&quot;&gt;Artefatto&lt;/font&gt;" style="whiteSpace=wrap;html=1;align=center;" parent="1" vertex="1">
          <mxGeometry x="-1775" y="80" width="110" height="50" as="geometry" />
        </mxCell>
        <mxCell id="VPmdxkoRCYv9EaFTGyUe-9" value="" style="endArrow=none;html=1;rounded=0;entryX=0.5;entryY=1;entryDx=0;entryDy=0;entryPerimeter=0;" parent="1" source="VPmdxkoRCYv9EaFTGyUe-26" edge="1">
          <mxGeometry width="50" height="50" relative="1" as="geometry">
            <mxPoint x="-1772.5" y="80" as="sourcePoint" />
            <mxPoint x="-1772.5" y="60" as="targetPoint" />
          </mxGeometry>
        </mxCell>
        <mxCell id="VPmdxkoRCYv9EaFTGyUe-10" value="&lt;font style=&quot;font-size: 18px;&quot;&gt;Cod&lt;/font&gt;" style="text;html=1;align=center;verticalAlign=middle;whiteSpace=wrap;rounded=0;" parent="1" vertex="1">
          <mxGeometry x="-1805" y="30" width="45" height="10" as="geometry" />
        </mxCell>
        <mxCell id="VPmdxkoRCYv9EaFTGyUe-11" value="" style="verticalLabelPosition=bottom;verticalAlign=top;html=1;shape=mxgraph.flowchart.on-page_reference;" parent="1" vertex="1">
          <mxGeometry x="-1750" y="50" width="10" height="10" as="geometry" />
        </mxCell>
        <mxCell id="VPmdxkoRCYv9EaFTGyUe-12" value="" style="endArrow=none;html=1;rounded=0;entryX=0.5;entryY=1;entryDx=0;entryDy=0;entryPerimeter=0;" parent="1" target="VPmdxkoRCYv9EaFTGyUe-11" edge="1">
          <mxGeometry width="50" height="50" relative="1" as="geometry">
            <mxPoint x="-1745" y="80" as="sourcePoint" />
            <mxPoint x="-1700" y="60" as="targetPoint" />
          </mxGeometry>
        </mxCell>
        <mxCell id="VPmdxkoRCYv9EaFTGyUe-13" value="&lt;font style=&quot;font-size: 18px;&quot;&gt;Nome&lt;/font&gt;" style="text;html=1;align=center;verticalAlign=middle;whiteSpace=wrap;rounded=0;" parent="1" vertex="1">
          <mxGeometry x="-1750" y="30" width="45" height="10" as="geometry" />
        </mxCell>
        <mxCell id="VPmdxkoRCYv9EaFTGyUe-14" value="" style="verticalLabelPosition=bottom;verticalAlign=top;html=1;shape=mxgraph.flowchart.on-page_reference;" parent="1" vertex="1">
          <mxGeometry x="-1695" y="50" width="10" height="10" as="geometry" />
        </mxCell>
        <mxCell id="VPmdxkoRCYv9EaFTGyUe-15" value="" style="endArrow=none;html=1;rounded=0;entryX=0.5;entryY=1;entryDx=0;entryDy=0;entryPerimeter=0;" parent="1" target="VPmdxkoRCYv9EaFTGyUe-14" edge="1">
          <mxGeometry width="50" height="50" relative="1" as="geometry">
            <mxPoint x="-1690" y="80" as="sourcePoint" />
            <mxPoint x="-1645" y="60" as="targetPoint" />
          </mxGeometry>
        </mxCell>
        <mxCell id="VPmdxkoRCYv9EaFTGyUe-16" value="&lt;font style=&quot;font-size: 18px;&quot;&gt;Anno&lt;/font&gt;" style="text;html=1;align=center;verticalAlign=middle;whiteSpace=wrap;rounded=0;" parent="1" vertex="1">
          <mxGeometry x="-1695" y="30" width="45" height="10" as="geometry" />
        </mxCell>
        <mxCell id="VPmdxkoRCYv9EaFTGyUe-28" value="" style="endArrow=none;html=1;rounded=0;entryX=0.5;entryY=1;entryDx=0;entryDy=0;entryPerimeter=0;" parent="1" target="VPmdxkoRCYv9EaFTGyUe-26" edge="1">
          <mxGeometry width="50" height="50" relative="1" as="geometry">
            <mxPoint x="-1772.5" y="80" as="sourcePoint" />
            <mxPoint x="-1772.5" y="60" as="targetPoint" />
          </mxGeometry>
        </mxCell>
        <mxCell id="VPmdxkoRCYv9EaFTGyUe-26" value="" style="verticalLabelPosition=bottom;verticalAlign=top;html=1;shape=mxgraph.flowchart.on-page_reference;fillColor=#000000;" parent="1" vertex="1">
          <mxGeometry x="-1777.5" y="50" width="10" height="10" as="geometry" />
        </mxCell>
        <mxCell id="VPmdxkoRCYv9EaFTGyUe-29" value="&lt;font style=&quot;font-size: 18px;&quot;&gt;Artista&lt;/font&gt;" style="whiteSpace=wrap;html=1;align=center;" parent="1" vertex="1">
          <mxGeometry x="-1365" y="80" width="110" height="50" as="geometry" />
        </mxCell>
        <mxCell id="VPmdxkoRCYv9EaFTGyUe-30" value="" style="endArrow=none;html=1;rounded=0;entryX=0.5;entryY=1;entryDx=0;entryDy=0;entryPerimeter=0;" parent="1" source="VPmdxkoRCYv9EaFTGyUe-39" edge="1">
          <mxGeometry width="50" height="50" relative="1" as="geometry">
            <mxPoint x="-1362.5" y="80" as="sourcePoint" />
            <mxPoint x="-1362.5" y="60" as="targetPoint" />
          </mxGeometry>
        </mxCell>
        <mxCell id="VPmdxkoRCYv9EaFTGyUe-31" value="&lt;font style=&quot;font-size: 18px;&quot;&gt;Nome&lt;/font&gt;" style="text;html=1;align=center;verticalAlign=middle;whiteSpace=wrap;rounded=0;" parent="1" vertex="1">
          <mxGeometry x="-1385" y="30" width="45" height="10" as="geometry" />
        </mxCell>
        <mxCell id="VPmdxkoRCYv9EaFTGyUe-32" value="" style="verticalLabelPosition=bottom;verticalAlign=top;html=1;shape=mxgraph.flowchart.on-page_reference;" parent="1" vertex="1">
          <mxGeometry x="-1325" y="50" width="10" height="10" as="geometry" />
        </mxCell>
        <mxCell id="VPmdxkoRCYv9EaFTGyUe-33" value="" style="endArrow=none;html=1;rounded=0;entryX=0.5;entryY=1;entryDx=0;entryDy=0;entryPerimeter=0;" parent="1" target="VPmdxkoRCYv9EaFTGyUe-32" edge="1">
          <mxGeometry width="50" height="50" relative="1" as="geometry">
            <mxPoint x="-1320" y="80" as="sourcePoint" />
            <mxPoint x="-1275" y="60" as="targetPoint" />
          </mxGeometry>
        </mxCell>
        <mxCell id="VPmdxkoRCYv9EaFTGyUe-34" value="&lt;font style=&quot;font-size: 18px;&quot;&gt;Cogn&lt;/font&gt;" style="text;html=1;align=center;verticalAlign=middle;whiteSpace=wrap;rounded=0;" parent="1" vertex="1">
          <mxGeometry x="-1332.5" y="30" width="45" height="10" as="geometry" />
        </mxCell>
        <mxCell id="VPmdxkoRCYv9EaFTGyUe-35" value="" style="verticalLabelPosition=bottom;verticalAlign=top;html=1;shape=mxgraph.flowchart.on-page_reference;" parent="1" vertex="1">
          <mxGeometry x="-1270" y="50" width="10" height="10" as="geometry" />
        </mxCell>
        <mxCell id="VPmdxkoRCYv9EaFTGyUe-36" value="" style="endArrow=none;html=1;rounded=0;entryX=0.5;entryY=1;entryDx=0;entryDy=0;entryPerimeter=0;" parent="1" target="VPmdxkoRCYv9EaFTGyUe-35" edge="1">
          <mxGeometry width="50" height="50" relative="1" as="geometry">
            <mxPoint x="-1265" y="80" as="sourcePoint" />
            <mxPoint x="-1220" y="60" as="targetPoint" />
          </mxGeometry>
        </mxCell>
        <mxCell id="VPmdxkoRCYv9EaFTGyUe-37" value="&lt;font style=&quot;font-size: 18px;&quot;&gt;DN&lt;/font&gt;" style="text;html=1;align=center;verticalAlign=middle;whiteSpace=wrap;rounded=0;" parent="1" vertex="1">
          <mxGeometry x="-1287.5" y="30" width="45" height="10" as="geometry" />
        </mxCell>
        <mxCell id="VPmdxkoRCYv9EaFTGyUe-38" value="" style="endArrow=none;html=1;rounded=0;entryX=0.5;entryY=1;entryDx=0;entryDy=0;entryPerimeter=0;" parent="1" target="VPmdxkoRCYv9EaFTGyUe-39" edge="1">
          <mxGeometry width="50" height="50" relative="1" as="geometry">
            <mxPoint x="-1362.5" y="80" as="sourcePoint" />
            <mxPoint x="-1362.5" y="60" as="targetPoint" />
          </mxGeometry>
        </mxCell>
        <mxCell id="VPmdxkoRCYv9EaFTGyUe-39" value="" style="verticalLabelPosition=bottom;verticalAlign=top;html=1;shape=mxgraph.flowchart.on-page_reference;fillColor=#FFFFFF;" parent="1" vertex="1">
          <mxGeometry x="-1367.5" y="50" width="10" height="10" as="geometry" />
        </mxCell>
        <mxCell id="VPmdxkoRCYv9EaFTGyUe-52" value="" style="endArrow=none;html=1;rounded=0;exitX=1;exitY=0.5;exitDx=0;exitDy=0;" parent="1" source="VPmdxkoRCYv9EaFTGyUe-51" edge="1">
          <mxGeometry width="50" height="50" relative="1" as="geometry">
            <mxPoint x="-1202.5" y="110" as="sourcePoint" />
            <mxPoint x="-1225" y="105" as="targetPoint" />
          </mxGeometry>
        </mxCell>
        <mxCell id="VPmdxkoRCYv9EaFTGyUe-53" value="&lt;font style=&quot;font-size: 18px;&quot;&gt;DM&lt;/font&gt;" style="text;html=1;align=center;verticalAlign=middle;whiteSpace=wrap;rounded=0;" parent="1" vertex="1">
          <mxGeometry x="-1215" y="100" width="40" height="10" as="geometry" />
        </mxCell>
        <mxCell id="VPmdxkoRCYv9EaFTGyUe-54" value="" style="endArrow=none;html=1;rounded=0;exitX=1;exitY=0.5;exitDx=0;exitDy=0;" parent="1" source="VPmdxkoRCYv9EaFTGyUe-29" target="VPmdxkoRCYv9EaFTGyUe-51" edge="1">
          <mxGeometry width="50" height="50" relative="1" as="geometry">
            <mxPoint x="-1255" y="105" as="sourcePoint" />
            <mxPoint x="-1225" y="105" as="targetPoint" />
          </mxGeometry>
        </mxCell>
        <mxCell id="VPmdxkoRCYv9EaFTGyUe-51" value="" style="verticalLabelPosition=bottom;verticalAlign=top;html=1;shape=mxgraph.flowchart.on-page_reference;" parent="1" vertex="1">
          <mxGeometry x="-1225" y="100" width="10" height="10" as="geometry" />
        </mxCell>
        <mxCell id="VPmdxkoRCYv9EaFTGyUe-55" value="" style="endArrow=none;html=1;rounded=0;" parent="1" edge="1">
          <mxGeometry width="50" height="50" relative="1" as="geometry">
            <mxPoint x="-1376.25" y="64.58" as="sourcePoint" />
            <mxPoint x="-1290" y="65" as="targetPoint" />
          </mxGeometry>
        </mxCell>
        <mxCell id="VPmdxkoRCYv9EaFTGyUe-56" value="" style="verticalLabelPosition=bottom;verticalAlign=top;html=1;shape=mxgraph.flowchart.on-page_reference;fillColor=#000000;" parent="1" vertex="1">
          <mxGeometry x="-1385" y="60" width="10" height="10" as="geometry" />
        </mxCell>
        <mxCell id="VPmdxkoRCYv9EaFTGyUe-57" value="" style="endArrow=none;html=1;rounded=0;entryX=0;entryY=0.5;entryDx=0;entryDy=0;" parent="1" target="VPmdxkoRCYv9EaFTGyUe-59" edge="1">
          <mxGeometry width="50" height="50" relative="1" as="geometry">
            <mxPoint x="-1665" y="110" as="sourcePoint" />
            <mxPoint x="-1575" y="110" as="targetPoint" />
          </mxGeometry>
        </mxCell>
        <mxCell id="VPmdxkoRCYv9EaFTGyUe-58" value="" style="endArrow=none;html=1;rounded=0;exitX=1;exitY=0.5;exitDx=0;exitDy=0;" parent="1" source="VPmdxkoRCYv9EaFTGyUe-59" edge="1">
          <mxGeometry width="50" height="50" relative="1" as="geometry">
            <mxPoint x="-1455" y="109" as="sourcePoint" />
            <mxPoint x="-1365" y="109.16999999999999" as="targetPoint" />
          </mxGeometry>
        </mxCell>
        <mxCell id="VPmdxkoRCYv9EaFTGyUe-59" value="&lt;font style=&quot;font-size: 18px;&quot;&gt;creazione&lt;/font&gt;" style="shape=rhombus;perimeter=rhombusPerimeter;whiteSpace=wrap;html=1;align=center;" parent="1" vertex="1">
          <mxGeometry x="-1575" y="80" width="120" height="60" as="geometry" />
        </mxCell>
        <mxCell id="VPmdxkoRCYv9EaFTGyUe-70" value="&lt;font style=&quot;font-size: 18px;&quot;&gt;(0,N)&lt;/font&gt;" style="text;html=1;align=center;verticalAlign=middle;whiteSpace=wrap;rounded=0;" parent="1" vertex="1">
          <mxGeometry x="-1655" y="90" width="40" height="20" as="geometry" />
        </mxCell>
        <mxCell id="VPmdxkoRCYv9EaFTGyUe-71" value="&lt;font style=&quot;font-size: 18px;&quot;&gt;(0,N)&lt;/font&gt;" style="text;html=1;align=center;verticalAlign=middle;whiteSpace=wrap;rounded=0;" parent="1" vertex="1">
          <mxGeometry x="-1415" y="90" width="40" height="20" as="geometry" />
        </mxCell>
        <mxCell id="VPmdxkoRCYv9EaFTGyUe-138" value="&lt;span style=&quot;font-size: 18px;&quot;&gt;Esposizione&lt;/span&gt;" style="whiteSpace=wrap;html=1;align=center;" parent="1" vertex="1">
          <mxGeometry x="-2117.5" y="680" width="110" height="50" as="geometry" />
        </mxCell>
        <mxCell id="VPmdxkoRCYv9EaFTGyUe-184" value="" style="endArrow=none;html=1;rounded=0;entryX=0.617;entryY=-0.019;entryDx=0;entryDy=0;entryPerimeter=0;" parent="1" edge="1">
          <mxGeometry width="50" height="50" relative="1" as="geometry">
            <mxPoint x="-2080.1956681350957" y="730.95" as="sourcePoint" />
            <mxPoint x="-2079.88" y="760" as="targetPoint" />
          </mxGeometry>
        </mxCell>
        <mxCell id="VPmdxkoRCYv9EaFTGyUe-186" value="" style="verticalLabelPosition=bottom;verticalAlign=top;html=1;shape=mxgraph.flowchart.on-page_reference;fillColor=#FFFFFF;" parent="1" vertex="1">
          <mxGeometry x="-2085" y="760" width="10" height="10" as="geometry" />
        </mxCell>
        <mxCell id="VPmdxkoRCYv9EaFTGyUe-198" value="" style="endArrow=none;html=1;rounded=0;exitX=0.5;exitY=0;exitDx=0;exitDy=0;" parent="1" edge="1">
          <mxGeometry relative="1" as="geometry">
            <mxPoint x="-1941" y="320" as="sourcePoint" />
            <mxPoint x="-1941" y="120" as="targetPoint" />
          </mxGeometry>
        </mxCell>
        <mxCell id="VPmdxkoRCYv9EaFTGyUe-200" value="&lt;span style=&quot;font-size: 18px;&quot;&gt;appartenenza&lt;/span&gt;&lt;div&gt;&lt;span style=&quot;font-size: 18px;&quot;&gt;corrente&lt;/span&gt;&lt;/div&gt;" style="shape=rhombus;perimeter=rhombusPerimeter;whiteSpace=wrap;html=1;align=center;" parent="1" vertex="1">
          <mxGeometry x="-2045" y="320" width="210" height="108" as="geometry" />
        </mxCell>
        <mxCell id="VPmdxkoRCYv9EaFTGyUe-207" value="" style="endArrow=none;html=1;rounded=0;entryX=0.5;entryY=1;entryDx=0;entryDy=0;entryPerimeter=0;" parent="1" source="VPmdxkoRCYv9EaFTGyUe-216" edge="1">
          <mxGeometry width="50" height="50" relative="1" as="geometry">
            <mxPoint x="-1290" y="580" as="sourcePoint" />
            <mxPoint x="-1290" y="560" as="targetPoint" />
          </mxGeometry>
        </mxCell>
        <mxCell id="VPmdxkoRCYv9EaFTGyUe-208" value="&lt;span style=&quot;font-size: 18px;&quot;&gt;CF&lt;/span&gt;" style="text;html=1;align=center;verticalAlign=middle;whiteSpace=wrap;rounded=0;" parent="1" vertex="1">
          <mxGeometry x="-1312.5" y="530" width="45" height="10" as="geometry" />
        </mxCell>
        <mxCell id="VPmdxkoRCYv9EaFTGyUe-215" value="" style="endArrow=none;html=1;rounded=0;entryX=0.5;entryY=1;entryDx=0;entryDy=0;entryPerimeter=0;" parent="1" target="VPmdxkoRCYv9EaFTGyUe-216" edge="1">
          <mxGeometry width="50" height="50" relative="1" as="geometry">
            <mxPoint x="-1290" y="580" as="sourcePoint" />
            <mxPoint x="-1290" y="560" as="targetPoint" />
          </mxGeometry>
        </mxCell>
        <mxCell id="VPmdxkoRCYv9EaFTGyUe-216" value="" style="verticalLabelPosition=bottom;verticalAlign=top;html=1;shape=mxgraph.flowchart.on-page_reference;fillColor=#000000;" parent="1" vertex="1">
          <mxGeometry x="-1295" y="550" width="10" height="10" as="geometry" />
        </mxCell>
        <mxCell id="VPmdxkoRCYv9EaFTGyUe-228" value="&lt;span style=&quot;font-size: 18px;&quot;&gt;Guida&lt;/span&gt;" style="whiteSpace=wrap;html=1;align=center;" parent="1" vertex="1">
          <mxGeometry x="-1342.5" y="580" width="110" height="50" as="geometry" />
        </mxCell>
        <mxCell id="VPmdxkoRCYv9EaFTGyUe-236" value="" style="verticalLabelPosition=bottom;verticalAlign=top;html=1;shape=mxgraph.flowchart.on-page_reference;" parent="1" vertex="1">
          <mxGeometry x="-1267.5" y="650" width="10" height="10" as="geometry" />
        </mxCell>
        <mxCell id="VPmdxkoRCYv9EaFTGyUe-237" value="" style="endArrow=none;html=1;rounded=0;entryX=0.5;entryY=0;entryDx=0;entryDy=0;entryPerimeter=0;" parent="1" target="VPmdxkoRCYv9EaFTGyUe-236" edge="1">
          <mxGeometry width="50" height="50" relative="1" as="geometry">
            <mxPoint x="-1262.5" y="630" as="sourcePoint" />
            <mxPoint x="-1216.5" y="660" as="targetPoint" />
          </mxGeometry>
        </mxCell>
        <mxCell id="VPmdxkoRCYv9EaFTGyUe-238" value="&lt;span style=&quot;font-size: 18px;&quot;&gt;Conteggio&lt;/span&gt;" style="text;html=1;align=center;verticalAlign=middle;whiteSpace=wrap;rounded=0;" parent="1" vertex="1">
          <mxGeometry x="-1286.5" y="670" width="45" height="10" as="geometry" />
        </mxCell>
        <mxCell id="VPmdxkoRCYv9EaFTGyUe-243" value="&lt;span style=&quot;font-size: 18px;&quot;&gt;Argomento&lt;/span&gt;" style="whiteSpace=wrap;html=1;align=center;" parent="1" vertex="1">
          <mxGeometry x="-1672.5" y="790" width="110" height="50" as="geometry" />
        </mxCell>
        <mxCell id="VPmdxkoRCYv9EaFTGyUe-246" value="" style="verticalLabelPosition=bottom;verticalAlign=top;html=1;shape=mxgraph.flowchart.on-page_reference;fillColor=#000000;" parent="1" vertex="1">
          <mxGeometry x="-1668.5" y="760" width="10" height="10" as="geometry" />
        </mxCell>
        <mxCell id="VPmdxkoRCYv9EaFTGyUe-247" value="" style="endArrow=none;html=1;rounded=0;entryX=0.5;entryY=1;entryDx=0;entryDy=0;entryPerimeter=0;" parent="1" target="VPmdxkoRCYv9EaFTGyUe-246" edge="1">
          <mxGeometry width="50" height="50" relative="1" as="geometry">
            <mxPoint x="-1663.5" y="790" as="sourcePoint" />
            <mxPoint x="-1618.5" y="770" as="targetPoint" />
          </mxGeometry>
        </mxCell>
        <mxCell id="VPmdxkoRCYv9EaFTGyUe-248" value="&lt;font style=&quot;font-size: 18px;&quot;&gt;Nome&lt;/font&gt;" style="text;html=1;align=center;verticalAlign=middle;whiteSpace=wrap;rounded=0;" parent="1" vertex="1">
          <mxGeometry x="-1696.5" y="740" width="45" height="10" as="geometry" />
        </mxCell>
        <mxCell id="VPmdxkoRCYv9EaFTGyUe-258" value="" style="endArrow=none;html=1;rounded=0;entryX=0;entryY=0.5;entryDx=0;entryDy=0;exitX=1;exitY=0.5;exitDx=0;exitDy=0;" parent="1" source="VPmdxkoRCYv9EaFTGyUe-138" target="VPmdxkoRCYv9EaFTGyUe-260" edge="1">
          <mxGeometry width="50" height="50" relative="1" as="geometry">
            <mxPoint x="-1972.5" y="820" as="sourcePoint" />
            <mxPoint x="-1882.5" y="820" as="targetPoint" />
          </mxGeometry>
        </mxCell>
        <mxCell id="VPmdxkoRCYv9EaFTGyUe-259" value="" style="endArrow=none;html=1;rounded=0;exitX=0.5;exitY=1;exitDx=0;exitDy=0;entryX=0.5;entryY=0;entryDx=0;entryDy=0;" parent="1" source="VPmdxkoRCYv9EaFTGyUe-260" target="VPmdxkoRCYv9EaFTGyUe-243" edge="1">
          <mxGeometry width="50" height="50" relative="1" as="geometry">
            <mxPoint x="-1762.5" y="819" as="sourcePoint" />
            <mxPoint x="-1672.5" y="820" as="targetPoint" />
          </mxGeometry>
        </mxCell>
        <mxCell id="VPmdxkoRCYv9EaFTGyUe-260" value="&lt;span style=&quot;font-size: 18px;&quot;&gt;trattazione&lt;/span&gt;" style="shape=rhombus;perimeter=rhombusPerimeter;whiteSpace=wrap;html=1;align=center;" parent="1" vertex="1">
          <mxGeometry x="-1677.5" y="675" width="120" height="60" as="geometry" />
        </mxCell>
        <mxCell id="VPmdxkoRCYv9EaFTGyUe-261" value="&lt;font style=&quot;font-size: 18px;&quot;&gt;(1,N)&lt;/font&gt;" style="text;html=1;align=center;verticalAlign=middle;whiteSpace=wrap;rounded=0;" parent="1" vertex="1">
          <mxGeometry x="-1722.5" y="680" width="40" height="20" as="geometry" />
        </mxCell>
        <mxCell id="VPmdxkoRCYv9EaFTGyUe-262" value="&lt;font style=&quot;font-size: 18px;&quot;&gt;(0,N)&lt;/font&gt;" style="text;html=1;align=center;verticalAlign=middle;whiteSpace=wrap;rounded=0;" parent="1" vertex="1">
          <mxGeometry x="-1602.5" y="750" width="40" height="20" as="geometry" />
        </mxCell>
        <mxCell id="VPmdxkoRCYv9EaFTGyUe-263" value="&lt;span style=&quot;font-size: 18px;&quot;&gt;conoscenza&lt;/span&gt;" style="shape=rhombus;perimeter=rhombusPerimeter;whiteSpace=wrap;html=1;align=center;" parent="1" vertex="1">
          <mxGeometry x="-1522.5" y="680" width="120" height="60" as="geometry" />
        </mxCell>
        <mxCell id="VPmdxkoRCYv9EaFTGyUe-264" value="" style="endArrow=none;html=1;rounded=0;exitX=0.5;exitY=0;exitDx=0;exitDy=0;" parent="1" source="VPmdxkoRCYv9EaFTGyUe-263" edge="1">
          <mxGeometry width="50" height="50" relative="1" as="geometry">
            <mxPoint x="-1514" y="620" as="sourcePoint" />
            <mxPoint x="-1462" y="600" as="targetPoint" />
          </mxGeometry>
        </mxCell>
        <mxCell id="VPmdxkoRCYv9EaFTGyUe-265" value="&lt;font style=&quot;font-size: 18px;&quot;&gt;(1,1)&lt;/font&gt;" style="text;html=1;align=center;verticalAlign=middle;whiteSpace=wrap;rounded=0;" parent="1" vertex="1">
          <mxGeometry x="-1456.5" y="640" width="40" height="20" as="geometry" />
        </mxCell>
        <mxCell id="VPmdxkoRCYv9EaFTGyUe-266" value="" style="endArrow=none;html=1;rounded=0;exitX=0.5;exitY=0;exitDx=0;exitDy=0;entryX=0.5;entryY=1;entryDx=0;entryDy=0;" parent="1" target="VPmdxkoRCYv9EaFTGyUe-263" edge="1">
          <mxGeometry width="50" height="50" relative="1" as="geometry">
            <mxPoint x="-1462" y="820" as="sourcePoint" />
            <mxPoint x="-1462" y="740" as="targetPoint" />
          </mxGeometry>
        </mxCell>
        <mxCell id="VPmdxkoRCYv9EaFTGyUe-267" value="&lt;font style=&quot;font-size: 18px;&quot;&gt;(0,N)&lt;/font&gt;" style="text;html=1;align=center;verticalAlign=middle;whiteSpace=wrap;rounded=0;" parent="1" vertex="1">
          <mxGeometry x="-1456.5" y="780" width="40" height="20" as="geometry" />
        </mxCell>
        <mxCell id="VPmdxkoRCYv9EaFTGyUe-268" value="" style="endArrow=none;html=1;rounded=0;" parent="1" edge="1">
          <mxGeometry width="50" height="50" relative="1" as="geometry">
            <mxPoint x="-1462.5" y="600" as="sourcePoint" />
            <mxPoint x="-1342.5" y="600" as="targetPoint" />
          </mxGeometry>
        </mxCell>
        <mxCell id="VPmdxkoRCYv9EaFTGyUe-269" value="" style="endArrow=none;html=1;rounded=0;" parent="1" edge="1">
          <mxGeometry width="50" height="50" relative="1" as="geometry">
            <mxPoint x="-1562.5" y="820" as="sourcePoint" />
            <mxPoint x="-1462.5" y="820" as="targetPoint" />
          </mxGeometry>
        </mxCell>
        <mxCell id="VPmdxkoRCYv9EaFTGyUe-277" value="&lt;span style=&quot;font-size: 18px;&quot;&gt;Visita Guidata&lt;/span&gt;" style="whiteSpace=wrap;html=1;align=center;" parent="1" vertex="1">
          <mxGeometry x="-1825" y="990" width="149" height="50" as="geometry" />
        </mxCell>
        <mxCell id="VPmdxkoRCYv9EaFTGyUe-280" value="" style="verticalLabelPosition=bottom;verticalAlign=top;html=1;shape=mxgraph.flowchart.on-page_reference;" parent="1" vertex="1">
          <mxGeometry x="-1817.5" y="960" width="10" height="10" as="geometry" />
        </mxCell>
        <mxCell id="VPmdxkoRCYv9EaFTGyUe-281" value="" style="endArrow=none;html=1;rounded=0;entryX=0.5;entryY=1;entryDx=0;entryDy=0;entryPerimeter=0;" parent="1" target="VPmdxkoRCYv9EaFTGyUe-280" edge="1">
          <mxGeometry width="50" height="50" relative="1" as="geometry">
            <mxPoint x="-1812.5" y="990" as="sourcePoint" />
            <mxPoint x="-1767.5" y="970" as="targetPoint" />
          </mxGeometry>
        </mxCell>
        <mxCell id="VPmdxkoRCYv9EaFTGyUe-282" value="&lt;font style=&quot;font-size: 18px;&quot;&gt;Data Visita&lt;/font&gt;" style="text;html=1;align=center;verticalAlign=middle;whiteSpace=wrap;rounded=0;" parent="1" vertex="1">
          <mxGeometry x="-1886" y="940" width="92.5" height="10" as="geometry" />
        </mxCell>
        <mxCell id="VPmdxkoRCYv9EaFTGyUe-283" value="" style="verticalLabelPosition=bottom;verticalAlign=top;html=1;shape=mxgraph.flowchart.on-page_reference;" parent="1" vertex="1">
          <mxGeometry x="-1710" y="960" width="10" height="10" as="geometry" />
        </mxCell>
        <mxCell id="VPmdxkoRCYv9EaFTGyUe-284" value="" style="endArrow=none;html=1;rounded=0;entryX=0.5;entryY=1;entryDx=0;entryDy=0;entryPerimeter=0;" parent="1" target="VPmdxkoRCYv9EaFTGyUe-283" edge="1">
          <mxGeometry width="50" height="50" relative="1" as="geometry">
            <mxPoint x="-1705" y="990" as="sourcePoint" />
            <mxPoint x="-1660" y="970" as="targetPoint" />
          </mxGeometry>
        </mxCell>
        <mxCell id="VPmdxkoRCYv9EaFTGyUe-285" value="&lt;span style=&quot;font-size: 18px;&quot;&gt;Turno&lt;/span&gt;" style="text;html=1;align=center;verticalAlign=middle;whiteSpace=wrap;rounded=0;" parent="1" vertex="1">
          <mxGeometry x="-1727.5" y="940" width="45" height="10" as="geometry" />
        </mxCell>
        <mxCell id="VPmdxkoRCYv9EaFTGyUe-288" value="" style="verticalLabelPosition=bottom;verticalAlign=top;html=1;shape=mxgraph.flowchart.on-page_reference;" parent="1" vertex="1">
          <mxGeometry x="-1810" y="1060" width="10" height="10" as="geometry" />
        </mxCell>
        <mxCell id="VPmdxkoRCYv9EaFTGyUe-289" value="" style="endArrow=none;html=1;rounded=0;entryX=0.5;entryY=0;entryDx=0;entryDy=0;entryPerimeter=0;" parent="1" target="VPmdxkoRCYv9EaFTGyUe-288" edge="1">
          <mxGeometry width="50" height="50" relative="1" as="geometry">
            <mxPoint x="-1805" y="1040" as="sourcePoint" />
            <mxPoint x="-1760" y="1070" as="targetPoint" />
          </mxGeometry>
        </mxCell>
        <mxCell id="VPmdxkoRCYv9EaFTGyUe-290" value="&lt;span style=&quot;font-size: 18px;&quot;&gt;Partecipanti&lt;/span&gt;" style="text;html=1;align=center;verticalAlign=middle;whiteSpace=wrap;rounded=0;" parent="1" vertex="1">
          <mxGeometry x="-1852.5" y="1080" width="107.5" height="10" as="geometry" />
        </mxCell>
        <mxCell id="VPmdxkoRCYv9EaFTGyUe-291" value="&lt;font style=&quot;font-size: 18px;&quot;&gt;gestione&lt;/font&gt;" style="shape=rhombus;perimeter=rhombusPerimeter;whiteSpace=wrap;html=1;align=center;" parent="1" vertex="1">
          <mxGeometry x="-1387.5" y="990" width="120" height="60" as="geometry" />
        </mxCell>
        <mxCell id="VPmdxkoRCYv9EaFTGyUe-292" value="" style="endArrow=none;html=1;rounded=0;exitX=0.5;exitY=0;exitDx=0;exitDy=0;entryX=0.127;entryY=1.004;entryDx=0;entryDy=0;entryPerimeter=0;" parent="1" source="VPmdxkoRCYv9EaFTGyUe-291" target="VPmdxkoRCYv9EaFTGyUe-228" edge="1">
          <mxGeometry width="50" height="50" relative="1" as="geometry">
            <mxPoint x="-1379" y="890" as="sourcePoint" />
            <mxPoint x="-1327" y="870" as="targetPoint" />
          </mxGeometry>
        </mxCell>
        <mxCell id="VPmdxkoRCYv9EaFTGyUe-293" value="&lt;span style=&quot;font-size: 18px;&quot;&gt;(1,N)&lt;/span&gt;" style="text;html=1;align=center;verticalAlign=middle;whiteSpace=wrap;rounded=0;" parent="1" vertex="1">
          <mxGeometry x="-1325" y="900" width="40" height="20" as="geometry" />
        </mxCell>
        <mxCell id="VPmdxkoRCYv9EaFTGyUe-294" value="" style="endArrow=none;html=1;rounded=0;entryX=0;entryY=0.5;entryDx=0;entryDy=0;exitX=0.998;exitY=0.588;exitDx=0;exitDy=0;exitPerimeter=0;" parent="1" source="VPmdxkoRCYv9EaFTGyUe-277" target="VPmdxkoRCYv9EaFTGyUe-291" edge="1">
          <mxGeometry width="50" height="50" relative="1" as="geometry">
            <mxPoint x="-1622.5" y="1010" as="sourcePoint" />
            <mxPoint x="-1387.5" y="960" as="targetPoint" />
          </mxGeometry>
        </mxCell>
        <mxCell id="VPmdxkoRCYv9EaFTGyUe-295" value="&lt;font style=&quot;font-size: 18px;&quot;&gt;(1,1)&lt;/font&gt;" style="text;html=1;align=center;verticalAlign=middle;whiteSpace=wrap;rounded=0;" parent="1" vertex="1">
          <mxGeometry x="-1542.5" y="990" width="40" height="20" as="geometry" />
        </mxCell>
        <mxCell id="VPmdxkoRCYv9EaFTGyUe-296" value="&lt;span style=&quot;font-size: 18px;&quot;&gt;presentazione&lt;/span&gt;" style="shape=rhombus;perimeter=rhombusPerimeter;whiteSpace=wrap;html=1;align=center;" parent="1" vertex="1">
          <mxGeometry x="-1862.5" y="760" width="152.5" height="60" as="geometry" />
        </mxCell>
        <mxCell id="VPmdxkoRCYv9EaFTGyUe-299" value="" style="endArrow=none;html=1;rounded=0;exitX=0.25;exitY=0;exitDx=0;exitDy=0;entryX=0.5;entryY=1;entryDx=0;entryDy=0;" parent="1" source="VPmdxkoRCYv9EaFTGyUe-277" target="VPmdxkoRCYv9EaFTGyUe-296" edge="1">
          <mxGeometry width="50" height="50" relative="1" as="geometry">
            <mxPoint x="-1952" y="1100" as="sourcePoint" />
            <mxPoint x="-1952.5" y="1020" as="targetPoint" />
          </mxGeometry>
        </mxCell>
        <mxCell id="VPmdxkoRCYv9EaFTGyUe-300" value="&lt;font style=&quot;font-size: 18px;&quot;&gt;(1,1)&lt;/font&gt;" style="text;html=1;align=center;verticalAlign=middle;whiteSpace=wrap;rounded=0;" parent="1" vertex="1">
          <mxGeometry x="-1842.5" y="878" width="40" height="20" as="geometry" />
        </mxCell>
        <mxCell id="VPmdxkoRCYv9EaFTGyUe-307" value="" style="verticalLabelPosition=bottom;verticalAlign=top;html=1;shape=mxgraph.flowchart.on-page_reference;fillColor=#000000;" parent="1" vertex="1">
          <mxGeometry x="-1877.5" y="1000" width="10" height="10" as="geometry" />
        </mxCell>
        <mxCell id="VPmdxkoRCYv9EaFTGyUe-310" value="&lt;font style=&quot;font-size: 18px;&quot;&gt;riferimento&lt;/font&gt;" style="shape=rhombus;perimeter=rhombusPerimeter;whiteSpace=wrap;html=1;align=center;" parent="1" vertex="1">
          <mxGeometry x="-1762.5" y="1170" width="120" height="60" as="geometry" />
        </mxCell>
        <mxCell id="VPmdxkoRCYv9EaFTGyUe-311" value="" style="endArrow=none;html=1;rounded=0;exitX=0.5;exitY=0;exitDx=0;exitDy=0;" parent="1" source="VPmdxkoRCYv9EaFTGyUe-310" edge="1">
          <mxGeometry width="50" height="50" relative="1" as="geometry">
            <mxPoint x="-1754" y="1060" as="sourcePoint" />
            <mxPoint x="-1702" y="1040" as="targetPoint" />
          </mxGeometry>
        </mxCell>
        <mxCell id="VPmdxkoRCYv9EaFTGyUe-312" value="&lt;font style=&quot;font-size: 18px;&quot;&gt;(0,N)&lt;/font&gt;" style="text;html=1;align=center;verticalAlign=middle;whiteSpace=wrap;rounded=0;" parent="1" vertex="1">
          <mxGeometry x="-1696.5" y="1080" width="40" height="20" as="geometry" />
        </mxCell>
        <mxCell id="VPmdxkoRCYv9EaFTGyUe-313" value="" style="endArrow=none;html=1;rounded=0;entryX=0.5;entryY=1;entryDx=0;entryDy=0;" parent="1" target="VPmdxkoRCYv9EaFTGyUe-310" edge="1">
          <mxGeometry width="50" height="50" relative="1" as="geometry">
            <mxPoint x="-1702" y="1310" as="sourcePoint" />
            <mxPoint x="-1702" y="1180" as="targetPoint" />
          </mxGeometry>
        </mxCell>
        <mxCell id="VPmdxkoRCYv9EaFTGyUe-314" value="&lt;font style=&quot;font-size: 18px;&quot;&gt;(1,1)&lt;/font&gt;" style="text;html=1;align=center;verticalAlign=middle;whiteSpace=wrap;rounded=0;" parent="1" vertex="1">
          <mxGeometry x="-1697.5" y="1270" width="40" height="20" as="geometry" />
        </mxCell>
        <mxCell id="VPmdxkoRCYv9EaFTGyUe-315" value="&lt;span style=&quot;font-size: 18px;&quot;&gt;I. Guidato&lt;/span&gt;" style="whiteSpace=wrap;html=1;align=center;" parent="1" vertex="1">
          <mxGeometry x="-2074" y="1270" width="110" height="50" as="geometry" />
        </mxCell>
        <mxCell id="VPmdxkoRCYv9EaFTGyUe-316" value="&lt;span style=&quot;font-size: 18px;&quot;&gt;I. Libero&lt;/span&gt;" style="whiteSpace=wrap;html=1;align=center;" parent="1" vertex="1">
          <mxGeometry x="-2300" y="1270" width="110" height="50" as="geometry" />
        </mxCell>
        <mxCell id="VPmdxkoRCYv9EaFTGyUe-328" value="&lt;span style=&quot;font-size: 18px;&quot;&gt;Biglietto&lt;/span&gt;" style="whiteSpace=wrap;html=1;align=center;" parent="1" vertex="1">
          <mxGeometry x="-2207.5" y="1140" width="110" height="50" as="geometry" />
        </mxCell>
        <mxCell id="VPmdxkoRCYv9EaFTGyUe-329" value="" style="endArrow=none;html=1;rounded=0;entryX=0.5;entryY=1;entryDx=0;entryDy=0;entryPerimeter=0;" parent="1" source="VPmdxkoRCYv9EaFTGyUe-338" edge="1">
          <mxGeometry width="50" height="50" relative="1" as="geometry">
            <mxPoint x="-2201.5" y="1140" as="sourcePoint" />
            <mxPoint x="-2201.5" y="1120" as="targetPoint" />
          </mxGeometry>
        </mxCell>
        <mxCell id="VPmdxkoRCYv9EaFTGyUe-330" value="&lt;span style=&quot;font-size: 18px;&quot;&gt;ID&lt;/span&gt;" style="text;html=1;align=center;verticalAlign=middle;whiteSpace=wrap;rounded=0;" parent="1" vertex="1">
          <mxGeometry x="-2224" y="1090" width="45" height="10" as="geometry" />
        </mxCell>
        <mxCell id="VPmdxkoRCYv9EaFTGyUe-331" value="" style="verticalLabelPosition=bottom;verticalAlign=top;html=1;shape=mxgraph.flowchart.on-page_reference;" parent="1" vertex="1">
          <mxGeometry x="-2169" y="1110" width="10" height="10" as="geometry" />
        </mxCell>
        <mxCell id="VPmdxkoRCYv9EaFTGyUe-332" value="" style="endArrow=none;html=1;rounded=0;entryX=0.5;entryY=1;entryDx=0;entryDy=0;entryPerimeter=0;" parent="1" target="VPmdxkoRCYv9EaFTGyUe-331" edge="1">
          <mxGeometry width="50" height="50" relative="1" as="geometry">
            <mxPoint x="-2164" y="1140" as="sourcePoint" />
            <mxPoint x="-2119" y="1120" as="targetPoint" />
          </mxGeometry>
        </mxCell>
        <mxCell id="VPmdxkoRCYv9EaFTGyUe-333" value="&lt;span style=&quot;font-size: 18px;&quot;&gt;Email&lt;/span&gt;" style="text;html=1;align=center;verticalAlign=middle;whiteSpace=wrap;rounded=0;" parent="1" vertex="1">
          <mxGeometry x="-2184" y="1090" width="45" height="10" as="geometry" />
        </mxCell>
        <mxCell id="VPmdxkoRCYv9EaFTGyUe-334" value="" style="verticalLabelPosition=bottom;verticalAlign=top;html=1;shape=mxgraph.flowchart.on-page_reference;" parent="1" vertex="1">
          <mxGeometry x="-2107.5" y="1110" width="10" height="10" as="geometry" />
        </mxCell>
        <mxCell id="VPmdxkoRCYv9EaFTGyUe-335" value="" style="endArrow=none;html=1;rounded=0;entryX=0.5;entryY=1;entryDx=0;entryDy=0;entryPerimeter=0;" parent="1" target="VPmdxkoRCYv9EaFTGyUe-334" edge="1">
          <mxGeometry width="50" height="50" relative="1" as="geometry">
            <mxPoint x="-2102.5" y="1140" as="sourcePoint" />
            <mxPoint x="-2057.5" y="1120" as="targetPoint" />
          </mxGeometry>
        </mxCell>
        <mxCell id="VPmdxkoRCYv9EaFTGyUe-336" value="&lt;font style=&quot;font-size: 18px;&quot;&gt;Data Acq.&lt;/font&gt;" style="text;html=1;align=center;verticalAlign=middle;whiteSpace=wrap;rounded=0;" parent="1" vertex="1">
          <mxGeometry x="-2139" y="1090" width="96.5" height="10" as="geometry" />
        </mxCell>
        <mxCell id="VPmdxkoRCYv9EaFTGyUe-337" value="" style="endArrow=none;html=1;rounded=0;entryX=0.5;entryY=1;entryDx=0;entryDy=0;entryPerimeter=0;" parent="1" target="VPmdxkoRCYv9EaFTGyUe-338" edge="1">
          <mxGeometry width="50" height="50" relative="1" as="geometry">
            <mxPoint x="-2201.5" y="1140" as="sourcePoint" />
            <mxPoint x="-2201.5" y="1120" as="targetPoint" />
          </mxGeometry>
        </mxCell>
        <mxCell id="VPmdxkoRCYv9EaFTGyUe-338" value="" style="verticalLabelPosition=bottom;verticalAlign=top;html=1;shape=mxgraph.flowchart.on-page_reference;fillColor=#000000;" parent="1" vertex="1">
          <mxGeometry x="-2206.5" y="1110" width="10" height="10" as="geometry" />
        </mxCell>
        <mxCell id="VPmdxkoRCYv9EaFTGyUe-343" style="edgeStyle=orthogonalEdgeStyle;rounded=0;orthogonalLoop=1;jettySize=auto;html=1;strokeWidth=4;entryX=0.5;entryY=1;entryDx=0;entryDy=0;" parent="1" target="VPmdxkoRCYv9EaFTGyUe-328" edge="1">
          <mxGeometry relative="1" as="geometry">
            <mxPoint x="-2259" y="1268" as="sourcePoint" />
            <mxPoint x="-2089" y="1200" as="targetPoint" />
            <Array as="points">
              <mxPoint x="-2259" y="1230" />
              <mxPoint x="-2152" y="1230" />
            </Array>
          </mxGeometry>
        </mxCell>
        <mxCell id="VPmdxkoRCYv9EaFTGyUe-344" style="edgeStyle=orthogonalEdgeStyle;rounded=0;orthogonalLoop=1;jettySize=auto;html=1;entryX=0.5;entryY=1;entryDx=0;entryDy=0;strokeWidth=4;exitX=0.5;exitY=0;exitDx=0;exitDy=0;" parent="1" source="VPmdxkoRCYv9EaFTGyUe-315" edge="1">
          <mxGeometry relative="1" as="geometry">
            <mxPoint x="-2074" y="1260" as="sourcePoint" />
            <mxPoint x="-2154" y="1190" as="targetPoint" />
          </mxGeometry>
        </mxCell>
        <mxCell id="LgWNFSchvh-kqdZ_exQb-1" value="" style="verticalLabelPosition=bottom;verticalAlign=top;html=1;shape=mxgraph.flowchart.on-page_reference;" parent="1" vertex="1">
          <mxGeometry x="-2256.5" y="1340" width="10" height="10" as="geometry" />
        </mxCell>
        <mxCell id="LgWNFSchvh-kqdZ_exQb-2" value="" style="endArrow=none;html=1;rounded=0;entryX=0.5;entryY=1;entryDx=0;entryDy=0;entryPerimeter=0;" parent="1" edge="1">
          <mxGeometry width="50" height="50" relative="1" as="geometry">
            <mxPoint x="-2251.62" y="1340" as="sourcePoint" />
            <mxPoint x="-2251.62" y="1320" as="targetPoint" />
          </mxGeometry>
        </mxCell>
        <mxCell id="LgWNFSchvh-kqdZ_exQb-3" value="&lt;span style=&quot;font-size: 18px;&quot;&gt;Data val.&lt;/span&gt;" style="text;html=1;align=center;verticalAlign=middle;whiteSpace=wrap;rounded=0;" parent="1" vertex="1">
          <mxGeometry x="-2291.5" y="1360" width="85" height="10" as="geometry" />
        </mxCell>
        <mxCell id="XXp2-Ove9_P-jNbOQPr0-2" value="&lt;font style=&quot;font-size: 18px;&quot;&gt;Inizio&lt;/font&gt;" style="text;html=1;align=center;verticalAlign=middle;resizable=0;points=[];autosize=1;strokeColor=none;fillColor=none;" parent="1" vertex="1">
          <mxGeometry x="-2115" y="765" width="70" height="40" as="geometry" />
        </mxCell>
        <mxCell id="GoX0HQxmNpDDhMxRZH0c-1" value="" style="endArrow=none;html=1;rounded=0;entryX=0.5;entryY=1;entryDx=0;entryDy=0;entryPerimeter=0;" parent="1" edge="1">
          <mxGeometry width="50" height="50" relative="1" as="geometry">
            <mxPoint x="-2126" y="833" as="sourcePoint" />
            <mxPoint x="-2126" y="833" as="targetPoint" />
          </mxGeometry>
        </mxCell>
        <mxCell id="IgAoc9PuT6BzsLdgYkdI-5" value="&lt;span style=&quot;font-size: 18px;&quot;&gt;Area&lt;/span&gt;" style="text;html=1;align=center;verticalAlign=middle;whiteSpace=wrap;rounded=0;" parent="1" vertex="1">
          <mxGeometry x="-2149" y="770" width="45" height="10" as="geometry" />
        </mxCell>
        <mxCell id="IgAoc9PuT6BzsLdgYkdI-6" value="" style="verticalLabelPosition=bottom;verticalAlign=top;html=1;shape=mxgraph.flowchart.on-page_reference;fillColor=#000000;" parent="1" vertex="1">
          <mxGeometry x="-2139" y="740" width="10" height="10" as="geometry" />
        </mxCell>
        <mxCell id="IgAoc9PuT6BzsLdgYkdI-7" value="" style="endArrow=none;html=1;rounded=0;entryX=0.617;entryY=-0.019;entryDx=0;entryDy=0;entryPerimeter=0;exitX=0.065;exitY=1.004;exitDx=0;exitDy=0;exitPerimeter=0;" parent="1" source="VPmdxkoRCYv9EaFTGyUe-138" edge="1">
          <mxGeometry width="50" height="50" relative="1" as="geometry">
            <mxPoint x="-2122.7" y="726" as="sourcePoint" />
            <mxPoint x="-2122.33" y="755" as="targetPoint" />
          </mxGeometry>
        </mxCell>
        <mxCell id="IgAoc9PuT6BzsLdgYkdI-8" style="edgeStyle=orthogonalEdgeStyle;rounded=0;orthogonalLoop=1;jettySize=auto;html=1;entryX=0.5;entryY=0;entryDx=0;entryDy=0;strokeWidth=4;" parent="1" source="IgAoc9PuT6BzsLdgYkdI-9" target="VPmdxkoRCYv9EaFTGyUe-138" edge="1">
          <mxGeometry relative="1" as="geometry">
            <mxPoint x="-2060" y="730" as="targetPoint" />
            <Array as="points">
              <mxPoint x="-1960" y="635" />
              <mxPoint x="-2063" y="635" />
            </Array>
          </mxGeometry>
        </mxCell>
        <mxCell id="IgAoc9PuT6BzsLdgYkdI-9" value="&lt;span style=&quot;font-size: 18px;&quot;&gt;In_corso&lt;/span&gt;" style="whiteSpace=wrap;html=1;align=center;" parent="1" vertex="1">
          <mxGeometry x="-2015" y="540" width="110" height="50" as="geometry" />
        </mxCell>
        <mxCell id="IgAoc9PuT6BzsLdgYkdI-10" style="edgeStyle=orthogonalEdgeStyle;rounded=0;orthogonalLoop=1;jettySize=auto;html=1;strokeWidth=4;" parent="1" edge="1">
          <mxGeometry relative="1" as="geometry">
            <mxPoint x="-2060" y="680" as="targetPoint" />
            <mxPoint x="-2183.9955172413797" y="585" as="sourcePoint" />
            <Array as="points">
              <mxPoint x="-2184" y="635" />
              <mxPoint x="-2062" y="635" />
              <mxPoint x="-2062" y="670" />
              <mxPoint x="-2060" y="670" />
            </Array>
          </mxGeometry>
        </mxCell>
        <mxCell id="IgAoc9PuT6BzsLdgYkdI-11" value="&lt;font style=&quot;font-size: 18px;&quot;&gt;Passata&lt;/font&gt;" style="whiteSpace=wrap;html=1;align=center;" parent="1" vertex="1">
          <mxGeometry x="-2239" y="540" width="110" height="50" as="geometry" />
        </mxCell>
        <mxCell id="IgAoc9PuT6BzsLdgYkdI-12" value="" style="endArrow=none;html=1;rounded=0;entryX=0.5;entryY=0;entryDx=0;entryDy=0;" parent="1" target="VPmdxkoRCYv9EaFTGyUe-296" edge="1">
          <mxGeometry width="50" height="50" relative="1" as="geometry">
            <mxPoint x="-1786.5" y="720" as="sourcePoint" />
            <mxPoint x="-1787.5" y="560" as="targetPoint" />
          </mxGeometry>
        </mxCell>
        <mxCell id="IgAoc9PuT6BzsLdgYkdI-13" value="" style="endArrow=none;html=1;rounded=0;" parent="1" edge="1">
          <mxGeometry width="50" height="50" relative="1" as="geometry">
            <mxPoint x="-2007.5" y="720" as="sourcePoint" />
            <mxPoint x="-1790" y="720" as="targetPoint" />
          </mxGeometry>
        </mxCell>
        <mxCell id="IgAoc9PuT6BzsLdgYkdI-16" value="&lt;span style=&quot;font-size: 18px;&quot;&gt;appartenenza&lt;/span&gt;&lt;div&gt;&lt;span style=&quot;font-size: 18px;&quot;&gt;passata&lt;/span&gt;&lt;/div&gt;" style="shape=rhombus;perimeter=rhombusPerimeter;whiteSpace=wrap;html=1;align=center;" parent="1" vertex="1">
          <mxGeometry x="-2306.5" y="320" width="210" height="108" as="geometry" />
        </mxCell>
        <mxCell id="IgAoc9PuT6BzsLdgYkdI-17" value="" style="endArrow=none;html=1;rounded=0;" parent="1" edge="1">
          <mxGeometry relative="1" as="geometry">
            <mxPoint x="-2200" y="90" as="sourcePoint" />
            <mxPoint x="-2201.5" y="322.5" as="targetPoint" />
          </mxGeometry>
        </mxCell>
        <mxCell id="IgAoc9PuT6BzsLdgYkdI-28" value="&lt;font style=&quot;font-size: 18px;&quot;&gt;(1,N)&lt;/font&gt;" style="text;html=1;align=center;verticalAlign=middle;whiteSpace=wrap;rounded=0;" parent="1" vertex="1">
          <mxGeometry x="-2179" y="460" width="40" height="20" as="geometry" />
        </mxCell>
        <mxCell id="IgAoc9PuT6BzsLdgYkdI-29" value="&lt;font style=&quot;font-size: 18px;&quot;&gt;(0,N)&lt;/font&gt;" style="text;html=1;align=center;verticalAlign=middle;whiteSpace=wrap;rounded=0;" parent="1" vertex="1">
          <mxGeometry x="-2256.5" y="222.5" width="40" height="20" as="geometry" />
        </mxCell>
        <mxCell id="IgAoc9PuT6BzsLdgYkdI-30" value="&lt;font style=&quot;font-size: 18px;&quot;&gt;(1,1)&lt;/font&gt;" style="text;html=1;align=center;verticalAlign=middle;whiteSpace=wrap;rounded=0;" parent="1" vertex="1">
          <mxGeometry x="-1926" y="242" width="40" height="20" as="geometry" />
        </mxCell>
        <mxCell id="IgAoc9PuT6BzsLdgYkdI-31" value="&lt;font style=&quot;font-size: 18px;&quot;&gt;(1,N)&lt;/font&gt;" style="text;html=1;align=center;verticalAlign=middle;whiteSpace=wrap;rounded=0;" parent="1" vertex="1">
          <mxGeometry x="-1926" y="460" width="40" height="20" as="geometry" />
        </mxCell>
        <mxCell id="IgAoc9PuT6BzsLdgYkdI-34" value="" style="endArrow=none;html=1;rounded=0;entryX=0;entryY=0.25;entryDx=0;entryDy=0;" parent="1" target="VPmdxkoRCYv9EaFTGyUe-277" edge="1">
          <mxGeometry width="50" height="50" relative="1" as="geometry">
            <mxPoint x="-1872.5" y="1005" as="sourcePoint" />
            <mxPoint x="-1872.5" y="980" as="targetPoint" />
          </mxGeometry>
        </mxCell>
        <mxCell id="IgAoc9PuT6BzsLdgYkdI-35" value="&lt;span style=&quot;font-size: 18px;&quot;&gt;ID&lt;/span&gt;" style="text;html=1;align=center;verticalAlign=middle;whiteSpace=wrap;rounded=0;" parent="1" vertex="1">
          <mxGeometry x="-1912.5" y="1000" width="45" height="10" as="geometry" />
        </mxCell>
        <mxCell id="IgAoc9PuT6BzsLdgYkdI-36" value="&lt;span style=&quot;font-size: 18px;&quot;&gt;(1,N)&lt;/span&gt;" style="text;html=1;align=center;verticalAlign=middle;whiteSpace=wrap;rounded=0;" parent="1" vertex="1">
          <mxGeometry x="-1942.5" y="720" width="40" height="20" as="geometry" />
        </mxCell>
        <mxCell id="IgAoc9PuT6BzsLdgYkdI-37" value="" style="endArrow=none;html=1;rounded=0;entryX=0.617;entryY=-0.019;entryDx=0;entryDy=0;entryPerimeter=0;" parent="1" edge="1">
          <mxGeometry width="50" height="50" relative="1" as="geometry">
            <mxPoint x="-2032.1956681350955" y="730.95" as="sourcePoint" />
            <mxPoint x="-2031.88" y="760" as="targetPoint" />
          </mxGeometry>
        </mxCell>
        <mxCell id="IgAoc9PuT6BzsLdgYkdI-38" value="" style="verticalLabelPosition=bottom;verticalAlign=top;html=1;shape=mxgraph.flowchart.on-page_reference;fillColor=#FFFFFF;" parent="1" vertex="1">
          <mxGeometry x="-2037" y="760" width="10" height="10" as="geometry" />
        </mxCell>
        <mxCell id="IgAoc9PuT6BzsLdgYkdI-39" value="&lt;span style=&quot;font-size: 18px;&quot;&gt;Fine&lt;/span&gt;" style="text;html=1;align=center;verticalAlign=middle;resizable=0;points=[];autosize=1;strokeColor=none;fillColor=none;" parent="1" vertex="1">
          <mxGeometry x="-2062" y="765" width="60" height="40" as="geometry" />
        </mxCell>
        <mxCell id="IgAoc9PuT6BzsLdgYkdI-42" value="" style="verticalLabelPosition=bottom;verticalAlign=top;html=1;shape=mxgraph.flowchart.on-page_reference;fillColor=#FFFFFF;" parent="1" vertex="1">
          <mxGeometry x="-2129" y="755" width="10" height="10" as="geometry" />
        </mxCell>
        <mxCell id="IgAoc9PuT6BzsLdgYkdI-44" value="" style="endArrow=none;html=1;rounded=0;entryX=1;entryY=0.5;entryDx=0;entryDy=0;entryPerimeter=0;" parent="1" target="IgAoc9PuT6BzsLdgYkdI-6" edge="1">
          <mxGeometry width="50" height="50" relative="1" as="geometry">
            <mxPoint x="-2064" y="745" as="sourcePoint" />
            <mxPoint x="-2013.63" y="792" as="targetPoint" />
          </mxGeometry>
        </mxCell>
        <mxCell id="IgAoc9PuT6BzsLdgYkdI-45" value="&lt;span style=&quot;font-size: 18px;&quot;&gt;Nome&lt;/span&gt;" style="text;html=1;align=center;verticalAlign=middle;resizable=0;points=[];autosize=1;strokeColor=none;fillColor=none;" parent="1" vertex="1">
          <mxGeometry x="-2012.5" y="755" width="70" height="40" as="geometry" />
        </mxCell>
        <mxCell id="IgAoc9PuT6BzsLdgYkdI-50" value="" style="endArrow=none;html=1;rounded=0;entryX=0.93;entryY=1.02;entryDx=0;entryDy=0;entryPerimeter=0;exitX=0.145;exitY=0.145;exitDx=0;exitDy=0;exitPerimeter=0;" parent="1" source="IgAoc9PuT6BzsLdgYkdI-51" target="VPmdxkoRCYv9EaFTGyUe-138" edge="1">
          <mxGeometry width="50" height="50" relative="1" as="geometry">
            <mxPoint x="-1980" y="740" as="sourcePoint" />
            <mxPoint x="-2020" y="823" as="targetPoint" />
          </mxGeometry>
        </mxCell>
        <mxCell id="IgAoc9PuT6BzsLdgYkdI-51" value="" style="verticalLabelPosition=bottom;verticalAlign=top;html=1;shape=mxgraph.flowchart.on-page_reference;fillColor=#FFFFFF;" parent="1" vertex="1">
          <mxGeometry x="-1985" y="755" width="10" height="10" as="geometry" />
        </mxCell>
        <mxCell id="IgAoc9PuT6BzsLdgYkdI-52" value="" style="endArrow=none;html=1;rounded=0;entryX=0.75;entryY=1;entryDx=0;entryDy=0;" parent="1" source="IgAoc9PuT6BzsLdgYkdI-53" target="VPmdxkoRCYv9EaFTGyUe-1" edge="1">
          <mxGeometry width="50" height="50" relative="1" as="geometry">
            <mxPoint x="-1730.12" y="165" as="sourcePoint" />
            <mxPoint x="-1684.63" y="199.05000000000007" as="targetPoint" />
          </mxGeometry>
        </mxCell>
        <mxCell id="IgAoc9PuT6BzsLdgYkdI-53" value="" style="verticalLabelPosition=bottom;verticalAlign=top;html=1;shape=mxgraph.flowchart.on-page_reference;fillColor=#FFFFFF;" parent="1" vertex="1">
          <mxGeometry x="-1697.5" y="160" width="10" height="10" as="geometry" />
        </mxCell>
        <mxCell id="IgAoc9PuT6BzsLdgYkdI-54" value="&lt;font style=&quot;font-size: 18px;&quot;&gt;Tipologia&lt;/font&gt;" style="text;html=1;align=center;verticalAlign=middle;whiteSpace=wrap;rounded=0;" parent="1" vertex="1">
          <mxGeometry x="-1715" y="180" width="45" height="10" as="geometry" />
        </mxCell>
        <mxCell id="BKa9-ofibb_SLYF3lVEr-4" value="" style="endArrow=none;html=1;rounded=0;exitX=1;exitY=0.8;exitDx=0;exitDy=0;exitPerimeter=0;" parent="1" source="VPmdxkoRCYv9EaFTGyUe-315" edge="1">
          <mxGeometry width="50" height="50" relative="1" as="geometry">
            <mxPoint x="-1947.5" y="1310" as="sourcePoint" />
            <mxPoint x="-1700" y="1310" as="targetPoint" />
          </mxGeometry>
        </mxCell>
        <mxCell id="BKa9-ofibb_SLYF3lVEr-7" value="" style="endArrow=none;html=1;rounded=0;" parent="1" edge="1">
          <mxGeometry width="50" height="50" relative="1" as="geometry">
            <mxPoint x="-2199" y="90" as="sourcePoint" />
            <mxPoint x="-1780" y="90" as="targetPoint" />
          </mxGeometry>
        </mxCell>
        <mxCell id="BKa9-ofibb_SLYF3lVEr-8" value="" style="endArrow=none;html=1;rounded=0;" parent="1" edge="1">
          <mxGeometry width="50" height="50" relative="1" as="geometry">
            <mxPoint x="-1942.5" y="120" as="sourcePoint" />
            <mxPoint x="-1780" y="120" as="targetPoint" />
          </mxGeometry>
        </mxCell>
        <mxCell id="BKa9-ofibb_SLYF3lVEr-9" value="" style="endArrow=none;html=1;rounded=0;entryX=0.5;entryY=1;entryDx=0;entryDy=0;exitX=0.341;exitY=0;exitDx=0;exitDy=0;exitPerimeter=0;" parent="1" source="IgAoc9PuT6BzsLdgYkdI-11" target="IgAoc9PuT6BzsLdgYkdI-16" edge="1">
          <mxGeometry width="50" height="50" relative="1" as="geometry">
            <mxPoint x="-2216.5" y="540" as="sourcePoint" />
            <mxPoint x="-2166.5" y="490" as="targetPoint" />
          </mxGeometry>
        </mxCell>
        <mxCell id="BKa9-ofibb_SLYF3lVEr-10" value="" style="endArrow=none;html=1;rounded=0;exitX=0.659;exitY=0;exitDx=0;exitDy=0;exitPerimeter=0;" parent="1" source="IgAoc9PuT6BzsLdgYkdI-9" edge="1">
          <mxGeometry width="50" height="50" relative="1" as="geometry">
            <mxPoint x="-1992.5" y="478" as="sourcePoint" />
            <mxPoint x="-1942.5" y="428" as="targetPoint" />
          </mxGeometry>
        </mxCell>
        <mxCell id="5tRdWVCDpSeD0bMtaher-1" value="" style="endArrow=none;html=1;rounded=0;" edge="1" parent="1">
          <mxGeometry width="50" height="50" relative="1" as="geometry">
            <mxPoint x="-1905" y="550" as="sourcePoint" />
            <mxPoint x="-1660" y="550" as="targetPoint" />
          </mxGeometry>
        </mxCell>
        <mxCell id="5tRdWVCDpSeD0bMtaher-2" value="&lt;font style=&quot;font-size: 18px;&quot;&gt;curatore&lt;/font&gt;" style="shape=rhombus;perimeter=rhombusPerimeter;whiteSpace=wrap;html=1;align=center;" vertex="1" parent="1">
          <mxGeometry x="-1662.5" y="520" width="120" height="60" as="geometry" />
        </mxCell>
        <mxCell id="5tRdWVCDpSeD0bMtaher-3" value="" style="endArrow=none;html=1;rounded=0;" edge="1" parent="1">
          <mxGeometry width="50" height="50" relative="1" as="geometry">
            <mxPoint x="-1542.5" y="550" as="sourcePoint" />
            <mxPoint x="-1330" y="550" as="targetPoint" />
          </mxGeometry>
        </mxCell>
        <mxCell id="5tRdWVCDpSeD0bMtaher-5" value="" style="endArrow=none;html=1;rounded=0;exitX=0.114;exitY=0;exitDx=0;exitDy=0;exitPerimeter=0;" edge="1" parent="1" source="VPmdxkoRCYv9EaFTGyUe-228">
          <mxGeometry width="50" height="50" relative="1" as="geometry">
            <mxPoint x="-1331.75" y="580" as="sourcePoint" />
            <mxPoint x="-1330" y="550" as="targetPoint" />
          </mxGeometry>
        </mxCell>
        <mxCell id="5tRdWVCDpSeD0bMtaher-6" value="&lt;font style=&quot;font-size: 18px;&quot;&gt;(1,1)&lt;/font&gt;" style="text;html=1;align=center;verticalAlign=middle;whiteSpace=wrap;rounded=0;" vertex="1" parent="1">
          <mxGeometry x="-1698.5" y="525" width="40" height="20" as="geometry" />
        </mxCell>
        <mxCell id="5tRdWVCDpSeD0bMtaher-7" value="&lt;font style=&quot;font-size: 18px;&quot;&gt;(0,1)&lt;/font&gt;" style="text;html=1;align=center;verticalAlign=middle;whiteSpace=wrap;rounded=0;" vertex="1" parent="1">
          <mxGeometry x="-1535" y="525" width="40" height="20" as="geometry" />
        </mxCell>
      </root>
    </mxGraphModel>
  </diagram>
</mxfile>
